<?xml version="1.0" standalone="no"?>
<!DOCTYPE svg PUBLIC "-//W3C//DTD SVG 1.1//EN" "http://www.w3.org/Graphics/SVG/1.1/DTD/svg11.dtd" >
<svg xmlns="http://www.w3.org/2000/svg">
<metadata></metadata>
<defs>
<font id="fortunecityregular" horiz-adv-x="1049" >
<font-face units-per-em="2048" ascent="1638" descent="-410" />
<missing-glyph horiz-adv-x="1139" />
<glyph horiz-adv-x="2048" />
<glyph horiz-adv-x="2048" />
<glyph unicode="&#xd;" horiz-adv-x="1139" />
<glyph unicode=" "  horiz-adv-x="1139" />
<glyph unicode="&#x09;" horiz-adv-x="1139" />
<glyph unicode="&#xa0;" horiz-adv-x="1139" />
<glyph unicode="!" horiz-adv-x="292" d="M31 0h189v189h-189v-189zM31 331h189v1088h-189v-1088z" />
<glyph unicode="&#x22;" horiz-adv-x="622" d="M31 899l189 189v331h-189v-189h95v-95l-95 -95v-141zM362 899l188 189v331h-188v-189h94v-95l-94 -95v-141z" />
<glyph unicode="#" horiz-adv-x="955" d="M31 425h143v-141h189v141h188v-141h190v141h142v190h-142v189h142v190h-142v141h-190v-141h-188v141h-189v-141h-143v-190h143v-189h-143v-190zM363 615v189h188v-189h-188z" />
<glyph unicode="$" d="M31 425q0 -158 113 -276q106 -112 266 -141v-150h189v150q161 30 267 141q112 116 111 276q0 159 -111 277q-106 112 -267 140v382q63 -16 102.5 -67.5t39.5 -116.5h189q0 148 -92 253t-239 123v145h-189v-145q-146 -18 -238.5 -123.5t-92.5 -252.5t92.5 -252t238.5 -123 v-463q-81 24 -133 81q-57 63 -57 142h-189zM268 1040q0 64 39.5 115.5t102.5 68.5v-366q-63 16 -102.5 67t-39.5 115zM599 202v446q81 -23 132 -81q57 -63 58 -142q0 -80 -58 -142q-52 -56 -132 -81z" />
<glyph unicode="%" horiz-adv-x="1395" d="M31 -3h236l1056 1422l-236 -2zM31 1088q0 -132 75 -229q81 -103 209 -103q129 0 210 103q74 97 74 229t-74 228q-81 103 -210 103t-209 -103q-74 -96 -75 -228zM220 1088q0 50 23 91q27 51 72 51q46 0 73 -51q22 -41 22 -91t-22 -92q-27 -50 -73 -50t-72 50 q-23 42 -23 92zM741 331q0 -132 74 -228q81 -103 210 -103t209 103q74 96 75 228q0 132 -75 228q-80 103 -209 103t-210 -103q-74 -96 -74 -228zM930 331q0 50 22 91q27 51 73 51t72 -51q22 -41 23 -91q0 -50 -23 -91q-27 -51 -72 -51q-46 0 -73 51q-22 41 -22 91z" />
<glyph unicode="&#x26;" horiz-adv-x="1045" d="M31 425q0 -189 143 -310q134 -114 326 -115h5q191 0 326 115q142 123 142 310v331h-184l-195 -94v-189l190 94v-142q0 -107 -89 -175q-81 -61 -193 -61q-111 0 -192 61q-90 68 -90 175q0 108 91 177q82 61 194 60v189h-48q-81 0 -135 54t-54 135t54 135.5t135 54.5 t135 -54t54 -136h189q0 161 -108 270t-270 109q-161 0 -269.5 -109t-108.5 -270q0 -170 128 -284q-175 -128 -176 -331z" />
<glyph unicode="'" horiz-adv-x="292" d="M31 899l189 189v331h-189v-189h95v-95l-95 -95v-141z" />
<glyph unicode="(" horiz-adv-x="429" d="M31 709q0 -259 50 -574q20 -122 97 -514h179l-89 510q-47 270 -48 578q0 259 48 579q14 99 89 509h-179q-77 -393 -97 -514q-50 -315 -50 -574z" />
<glyph unicode=")" horiz-adv-x="429" d="M31 -379l90 510q47 317 47 578q0 262 -47 579q-14 87 -90 509h179q80 -401 98 -514q49 -312 49 -574q0 -261 -49 -574q-18 -114 -98 -514h-179z" />
<glyph unicode="*" horiz-adv-x="806" d="M31 940l115 -151l136 104v-137h190v144l147 -113l115 150l-197 151l197 150l-115 150l-147 -112v143h-190v-137l-136 104l-115 -151l194 -147z" />
<glyph unicode="+" horiz-adv-x="861" d="M31 615h284v-285h190v285h284v189h-284v284h-190v-284h-284v-189z" />
<glyph unicode="," horiz-adv-x="292" d="M31 0h95v-95l-95 -95v-141l189 189v331h-189v-189z" />
<glyph unicode="-" horiz-adv-x="861" d="M31 615h758v189h-758v-189z" />
<glyph unicode="." horiz-adv-x="292" d="M31 0h189v189h-189v-189z" />
<glyph unicode="/" horiz-adv-x="1109" d="M31 -1l216 -1l790 1421h-217z" />
<glyph unicode="0" horiz-adv-x="1144" d="M31 709q0 258 128 466q149 243 392 244q243 0 393 -243q128 -207 128 -467q0 -259 -128 -466q-149 -243 -393 -243q-243 0 -392 243q-128 208 -128 466zM220 709q0 -178 76 -331q94 -189 255 -189q162 0 256 189q76 151 76 331q0 179 -76 331q-94 190 -256 190 q-161 0 -255 -190q-76 -153 -76 -331z" />
<glyph unicode="1" horiz-adv-x="529" d="M31 1135l48 47l284 237v-1230h94v-189h-378v189h95v946h-143z" />
<glyph unicode="2" d="M31 0v47q0 248 111 456q135 253 363 253q110 0 192 63q91 68 92 175q0 107 -91 175q-82 61 -193 61t-194 -62q-91 -67 -91 -174h-189q0 190 144 310q136 115 330 115q193 0 329 -114q143 -120 143 -311t-143 -312q-135 -115 -329 -115q-114 0 -194 -138 q-59 -103 -80 -240h699v-189h-899z" />
<glyph unicode="3" d="M31 425h189q0 -107 91 -174q82 -62 194 -62q111 0 193 61q90 68 91 175q0 107 -92 175q-82 63 -192 62h-48v189h48q23 0 46 -2v2q81 0 135.5 54t54.5 135t-54 135.5t-136 54.5h-94q-81 0 -135 -54t-54 -136h-189q0 161 108.5 270t269.5 109h94q161 0 270 -109t109 -270 q0 -170 -128 -284q175 -128 175 -331q0 -191 -143 -311q-136 -114 -329 -114t-330 115q-144 121 -144 310z" />
<glyph unicode="4" horiz-adv-x="1144" d="M31 425l95 190l362 804l206 -2l-355 -802h260v331h190v-331h283v-190h-283v-425h-190v425h-568z" />
<glyph unicode="5" d="M31 473h189q0 -122 81.5 -203t203.5 -81t203 81t81 203t-81 202.5t-203 80.5h-379v663h757v-189h-568v-284h190q201 0 336.5 -136t135.5 -337t-136 -337t-336 -136q-201 0 -337.5 135.5t-136.5 337.5z" />
<glyph unicode="6" d="M31 425v95q0 343 179 604q202 294 531 295v-189q-176 0 -311 -138q-118 -120 -172 -303q114 63 247 62q195 0 329 -113q143 -121 143 -313q0 -191 -143 -311q-136 -114 -329 -114t-330 115q-144 121 -144 310zM220 425q0 -107 91 -174q82 -62 194 -62q111 0 193 61 q91 68 91 175t-92 175q-82 63 -192 62q-112 0 -194 -60q-90 -68 -91 -177z" />
<glyph unicode="7" horiz-adv-x="1058" d="M31 1230v189h955l-426 -1419h-197l368 1230h-700z" />
<glyph unicode="8" d="M31 425q0 203 176 331q-128 114 -128 284q0 161 108.5 270t269.5 109h94q162 0 270.5 -108.5t108.5 -270.5q0 -170 -128 -284q175 -128 175 -331q0 -118 -66 -217q-64 -96 -172 -152t-234 -56q-141 0 -257 66q-121 69 -179 194q-38 81 -38 165zM220 425q0 -107 91 -174 q82 -62 194 -62q111 0 193 61q91 68 91 175t-92 175q-82 63 -192 62q-112 0 -194 -60q-90 -68 -91 -177zM268 1040q0 -81 54 -135t135 -54h94q81 0 135.5 54t54.5 135t-54 135.5t-136 54.5h-94q-81 0 -135 -54t-54 -136z" />
<glyph unicode="9" d="M31 994q0 190 144 310q136 115 330 115q193 0 329 -114q143 -121 143 -311v-95q0 -343 -179 -605q-202 -294 -530 -294v189q177 0 311 137q118 120 172 304q-113 -63 -246 -63q-194 0 -330 114q-143 122 -144 313zM220 994q0 -108 91 -177q82 -61 194 -61q110 0 192 63 q92 68 92 175t-91 175q-82 61 -193 61t-194 -62q-91 -67 -91 -174z" />
<glyph unicode=":" horiz-adv-x="292" d="M31 0h189v189h-189v-189zM31 586h189v189h-189v-189z" />
<glyph unicode=";" horiz-adv-x="292" d="M31 0h95v-95l-95 -95v-141l189 189v331h-189v-189zM31 586h189v189h-189v-189z" />
<glyph unicode="&#x3c;" horiz-adv-x="908" d="M31 580l805 -371v208l-571 264l570 262v209l-804 -371v-201z" />
<glyph unicode="=" horiz-adv-x="908" d="M31 425h805v190h-805v-190zM31 804h804v189h-804v-189z" />
<glyph unicode="&#x3e;" horiz-adv-x="908" d="M31 209v208l571 264l-570 262v209l804 -371v-201z" />
<glyph unicode="?" d="M31 993h189q0 108 91 176q82 61 194 61q110 0 192 -63q91 -68 92 -174q0 -107 -91 -176q-82 -61 -193 -61h-142v-426h188v239q178 15 299 129q127 119 127 295q0 192 -143 312q-134 114 -329 114q-194 0 -330 -114q-143 -122 -144 -312zM363 0h188v189h-188v-189z" />
<glyph unicode="@" horiz-adv-x="1706" d="M31 699q0 -344 230 -574.5t574 -230.5q314 0 538.5 199t260.5 511h-191q-35 -230 -205 -375t-403 -145q-263 0 -439 176t-176 439t176 439t439 176q151 0 285 -70v-167q-126 95 -285 95q-201 0 -336.5 -136t-135.5 -337t135.5 -337t336.5 -136q187 0 320 119.5t151 306.5 h3v697q-211 154 -474 154q-343 0 -573.5 -230.5t-230.5 -573.5zM551 699q0 122 81 203t203 81t203.5 -81t81.5 -203q0 -123 -81 -203.5t-204 -80.5q-122 0 -203 81t-81 203z" />
<glyph unicode="A" horiz-adv-x="1587" d="M31 1l209 -2l229 520h616l228 -520l202 2l-618 1418h-240zM552 709l225 512l225 -512h-450z" />
<glyph unicode="B" horiz-adv-x="1097" d="M31 -1h521q195 0 330 114q143 121 143 312q0 222 -203 349q109 111 109 266q0 161 -109 270t-270 109h-521v-1420zM221 188v473h331q111 0 194 -60q90 -68 90 -176q0 -107 -91 -174q-82 -63 -193 -63h-331zM221 851v379h331q81 0 135 -54t54 -136q0 -81 -53.5 -135 t-135.5 -54h-331z" />
<glyph unicode="C" horiz-adv-x="1239" d="M31 709q0 -303 203.5 -506.5t506.5 -203.5q237 0 426 142l-136 136q-131 -89 -290 -89q-223 0 -371.5 149t-148.5 372t148.5 371.5t371.5 148.5q159 0 290 -88l136 135q-189 142 -426 143q-303 0 -506.5 -204t-203.5 -506z" />
<glyph unicode="D" horiz-adv-x="1239" d="M31 -1h426q303 0 506.5 203t203.5 507q0 303 -203.5 506.5t-506.5 203.5h-426v-1420zM221 188v1041h236q223 0 371.5 -148.5t148.5 -371.5t-148.5 -372t-371.5 -149h-236z" />
<glyph unicode="E" horiz-adv-x="908" d="M31 -1h805v189h-615v426h425v189h-425v426h615v190h-805v-1420z" />
<glyph unicode="F" horiz-adv-x="801" d="M31 -1h190v615h425v189h-425v426h615v190h-805v-1420z" />
<glyph unicode="G" horiz-adv-x="1239" d="M31 709q0 -303 203.5 -506.5t506.5 -203.5q122 0 237 40v-40h189v757h-473v-189h284v-322q-112 -57 -237 -57q-223 0 -371.5 149t-148.5 372t148.5 371.5t371.5 148.5q159 0 290 -88l136 135q-189 142 -426 143q-303 0 -506.5 -204t-203.5 -506z" />
<glyph unicode="H" horiz-adv-x="1238" d="M31 0h189v615h757v-615h189v1419h-189v-615h-757v615h-189v-1419z" />
<glyph unicode="I" horiz-adv-x="482" d="M31 0h379v189h-95v1041h95v189h-379v-189h95v-1041h-95v-189z" />
<glyph unicode="J" horiz-adv-x="955" d="M31 424q0 -181 123 -303.5t303 -122.5q181 0 303.5 122.5t122.5 303.5v994h-189v-994q0 -102 -67.5 -169t-169.5 -67t-169.5 67t-67.5 169h-189z" />
<glyph unicode="K" horiz-adv-x="1203" d="M31 0h189v286l201 253l460 -539l250 -2l-591 692l576 730l-240 -1l-656 -829v829h-189v-1419z" />
<glyph unicode="L" horiz-adv-x="1002" d="M31 0h899v189h-710v1230h-189v-1419z" />
<glyph unicode="M" horiz-adv-x="1476" d="M31 0h189v1088l402 -661l72 -1v-1h107l413 676v-1101h190v1419h-217l-474 -779l-472 779h-210v-1419z" />
<glyph unicode="N" horiz-adv-x="1238" d="M31 0h189v1103l747 -1103h199v1419h-189v-1095l-742 1095h-204v-1419z" />
<glyph unicode="O" horiz-adv-x="1523" d="M31 709q0 -303 203.5 -506t506.5 -203t506.5 203t203.5 506t-203.5 506.5t-506.5 203.5t-506.5 -203.5t-203.5 -506.5zM220 709q0 223 149 372t372 149t371.5 -149t148.5 -372q0 -222 -149 -371t-371 -149q-223 0 -372 148.5t-149 371.5z" />
<glyph unicode="P" horiz-adv-x="1097" d="M31 0h189v567h331q194 0 331 114q143 122 143 313q0 190 -144 310q-137 115 -330 115h-520v-1419zM220 756v474h331q111 0 194 -62q91 -67 91 -174q0 -108 -90 -177q-83 -61 -195 -61h-331z" />
<glyph unicode="Q" horiz-adv-x="1523" d="M31 709q0 -303 203.5 -506t506.5 -203q198 0 366 102l88 -104l256 2l-192 224q192 205 192 485q0 303 -203 506.5t-507 203.5q-303 0 -506.5 -203.5t-203.5 -506.5zM220 709q0 223 149 372t372 149t371.5 -149t148.5 -372q0 -193 -127 -340l-336 392l-145 -122l330 -390 q-113 -60 -242 -60q-223 0 -372 148.5t-149 371.5z" />
<glyph unicode="R" horiz-adv-x="1100" d="M31 0h189v567h288l302 -567h218l-319 592q138 44 225 150q91 111 91 252q0 190 -144 310q-136 115 -330 115h-520v-1419zM220 756v474h331q111 0 194 -62q91 -67 91 -174q0 -108 -90 -177q-82 -61 -195 -61h-331z" />
<glyph unicode="S" horiz-adv-x="1048" d="M31 425q0 -188 144 -310q136 -115 327 -115h1h1h1q192 0 327 115q143 121 144 310q0 192 -144 313q-135 113 -327 113h-3h-46q-81 0 -135.5 54t-54.5 135t54 135.5t136 54.5h94q81 0 135 -54t54 -136h189q0 161 -108.5 270t-269.5 109h-94q-162 0 -270.5 -108.5 t-108.5 -270.5t108.5 -270t270.5 -108h46q112 0 194 -60q90 -68 91 -177q0 -107 -91 -174q-81 -62 -192 -62t-193 61q-90 68 -91 175h-189z" />
<glyph unicode="T" d="M31 1230h379v-1230h189v1230h378v189h-946v-189z" />
<glyph unicode="U" horiz-adv-x="1238" d="M31 709q0 -303 129 -491q149 -218 439 -218q291 0 439 218q128 187 128 491v710h-189v-710q0 -520 -378 -520q-379 0 -379 520v710h-189v-710z" />
<glyph unicode="V" horiz-adv-x="1460" d="M31 1417l554 -1418h240l563 1418l-202 2l-480 -1200l-466 1200z" />
<glyph unicode="W" horiz-adv-x="1841" d="M31 1419l428 -1419h4l-1 -1h208l239 548l230 -547h204l426 1419h-198l-346 -1147l-230 532h-195l-224 -534l-347 1149h-198z" />
<glyph unicode="X" horiz-adv-x="1396" d="M31 0h236l411 553l412 -553l234 -1l-528 713l527 709l-236 -2l-409 -549l-407 549h-235l525 -707z" />
<glyph unicode="Y" horiz-adv-x="1391" d="M31 1420l548 -737v-683h189v679l551 743l-237 -2l-408 -549l-407 549h-236z" />
<glyph unicode="Z" horiz-adv-x="1428" d="M31 1230h946l-917 -1233h236l2 3h1058v189h-917l914 1230l-187 -2v2h-1135v-189z" />
<glyph unicode="[" horiz-adv-x="577" d="M31 -379h474v189h-285v1798h285v189h-474v-2176z" />
<glyph unicode="\" horiz-adv-x="1109" d="M31 1419h217l789 -1420l-216 -1z" />
<glyph unicode="]" horiz-adv-x="577" d="M31 -190h284v1798h-284v189h474v-2176h-474v189z" />
<glyph unicode="^" horiz-adv-x="990" d="M31 943h235l211 315l210 -313h231l-324 474h-9l1 2h-218l1 -2h-11z" />
<glyph unicode="_" horiz-adv-x="1173" d="M3 -210v-189h1098v189h-1098z" />
<glyph unicode="`" horiz-adv-x="548" d="M85 1452l167 -286h224l-167 286h-224z" />
<glyph unicode="a" d="M31 473q0 -201 136 -337t338 -136q158 0 284 94v-94h188v520h-2q-18 185 -151 305.5t-319 120.5q-201 0 -337.5 -136t-136.5 -337zM220 473q0 122 81.5 202.5t203.5 80.5t203 -81t81 -202q0 -122 -81 -203t-203 -81t-203.5 81t-81.5 203z" />
<glyph unicode="b" d="M31 425h3q18 -186 151 -305.5t320 -119.5q201 0 336.5 136t135.5 337t-135.5 337t-336.5 136q-158 0 -285 -95v568h-189v-994zM220 473q0 122 81.5 202.5t203.5 80.5t203 -81t81 -202q0 -122 -81 -203t-203 -81t-203.5 81t-81.5 203z" />
<glyph unicode="c" horiz-adv-x="938" d="M31 473q0 -201 136 -337t338 -136q212 0 353 158l-134 135q-85 -104 -219 -104q-122 0 -203.5 81t-81.5 203t81.5 202.5t203.5 80.5q141 0 226 -113l135 134q-142 169 -361 169q-201 0 -337.5 -136t-136.5 -337z" />
<glyph unicode="d" d="M31 473q0 -201 136 -337t338 -136q186 0 319 120t151 305h2v994h-188v-568q-126 95 -284 95q-201 0 -337.5 -136t-136.5 -337zM220 473q0 122 81.5 202.5t203.5 80.5t203 -81t81 -202q0 -122 -81 -203t-203 -81t-203.5 81t-81.5 203z" />
<glyph unicode="e" horiz-adv-x="1040" d="M31 473q0 -201 135.5 -336.5t335.5 -136.5v-3h428v192h-425q-90 0 -164 52t-104 137h612l119 189q-34 169 -162 274t-301 105q-201 0 -337.5 -136t-136.5 -337zM237 567q30 85 104 137t164 52q91 0 163.5 -51.5t103.5 -137.5h-535z" />
<glyph unicode="f" horiz-adv-x="699" d="M31 0h189v615h331v189h-331v236q0 81 54.5 135.5t135.5 54.5t135 -54t54 -136h190q0 161 -109 270t-270 109t-270 -109t-109 -270v-1040z" />
<glyph unicode="g" d="M31 473q0 -201 136 -337t338 -136q158 0 284 94v-94q0 -122 -81 -203t-203 -81q-183 0 -258 165l-182 -58q55 -137 173.5 -217t266.5 -80q201 0 336.5 136.5t135.5 337.5v473q0 201 -135.5 337t-336.5 136t-337.5 -136t-136.5 -337zM220 473q0 122 81.5 202.5t203.5 80.5 t203 -81t81 -202q0 -122 -81 -203t-203 -81t-203.5 81t-81.5 203z" />
<glyph unicode="h" d="M31 0h189v473q0 123 81 203t204 80q122 0 203 -81t81 -202v-473h188v473q0 201 -135.5 337t-336.5 136q-158 0 -285 -95v568h-189v-1419z" />
<glyph unicode="i" horiz-adv-x="292" d="M31 7h189v946h-189v-946zM31 1096h189v188h-189v-188z" />
<glyph unicode="j" horiz-adv-x="360" d="M-628 -169q54 -137 172.5 -217t265.5 -80q201 0 337.5 136t136.5 337v946h-190v-946q0 -122 -81 -203t-203 -81q-181 0 -258 165zM99 1096h189v188h-189v-188z" />
<glyph unicode="k" horiz-adv-x="1053" d="M31 7h189v276l195 175l327 -451h239l-424 578l412 370l-285 -2l-464 -415v888h-189v-1419z" />
<glyph unicode="l" horiz-adv-x="292" d="M31 7h189v1419h-189v-1419z" />
<glyph unicode="m" horiz-adv-x="1661" d="M31 7h173v473q0 118 70 199q73 85 190 85q116 0 189 -86q71 -81 71 -198v-473h173v473q0 118 70 199q73 85 189 85t190 -85q70 -81 70 -199v-473h173v473q0 194 -117 330q-124 143 -316 143q-217 0 -346 -189q-130 189 -346 189q-192 0 -315 -143q-117 -136 -118 -330 v-473z" />
<glyph unicode="n" d="M31 7h189v473q0 123 81 203.5t204 80.5q122 0 203 -81t81 -203v-473h188v473q0 201 -135.5 337t-336.5 136t-337.5 -136t-136.5 -337v-473z" />
<glyph unicode="o" d="M31 480q0 -201 136.5 -337t337.5 -136t336.5 136t135.5 337t-135.5 337t-336.5 136t-337.5 -136t-136.5 -337zM220 480q0 123 81 203.5t204 80.5q122 0 203 -81t81 -203t-81 -203t-203 -81t-203.5 81t-81.5 203z" />
<glyph unicode="p" d="M31 -466h189v568q126 -95 285 -95q201 0 336.5 136t135.5 337t-135.5 337t-336.5 136q-187 0 -320 -120t-151 -306h-3v-993zM220 480q0 123 81 203.5t204 80.5q122 0 203 -81t81 -203t-81 -203t-203 -81t-203.5 81t-81.5 203z" />
<glyph unicode="q" d="M31 480q0 -201 136.5 -337t337.5 -136q158 0 284 95v-568h188v993h-2q-18 186 -150.5 306t-319.5 120q-201 0 -337.5 -136t-136.5 -337zM220 480q0 123 81 203.5t204 80.5q122 0 203 -81t81 -203t-81 -203t-203 -81t-203.5 81t-81.5 203z" />
<glyph unicode="r" horiz-adv-x="691" d="M31 7h189v473q0 123 81 203.5t204 80.5q45 0 84 -12q16 21 57 77.5t41 79.5q0 10 -8 13q-81 31 -174 31q-201 0 -337.5 -136t-136.5 -337v-473z" />
<glyph unicode="s" horiz-adv-x="955" d="M31 284q0 -137 152 -218q124 -66 274 -66q149 0 274 66q151 81 152 218q0 137 -152 217q-125 66 -274 66q-189 0 -189 94q0 95 189 95q71 0 137 -18q99 -27 100 -76h189q0 137 -152 218q-124 66 -274 66q-149 0 -274 -66q-152 -81 -152 -218t152 -218q124 -66 274 -66 q189 0 189 -94q0 -95 -189 -95q-72 0 -137 18q-99 27 -100 77h-189z" />
<glyph unicode="t" horiz-adv-x="577" d="M31 0h189v804h285v190h-285v425h-189v-1419z" />
<glyph unicode="u" d="M31 473q0 -201 136 -337t338 -136q201 0 336.5 136t135.5 337v473h-188v-473q0 -122 -81 -203t-203 -81t-203.5 81t-81.5 203v473h-189v-473z" />
<glyph unicode="v" horiz-adv-x="1200" d="M31 943l417 -944h263l417 944l-206 2l-342 -761l-344 761z" />
<glyph unicode="w" horiz-adv-x="1661" d="M31 473q0 -196 117 -332q123 -141 316 -141q217 0 346 189q130 -189 346 -189q193 0 316 141q116 135 117 332v473h-173v-473q0 -117 -71 -199q-73 -85 -189 -85q-115 0 -188 85q-71 81 -71 199v473h-173v-473q0 -115 -72 -197q-75 -87 -188 -87q-115 0 -189 85 q-71 81 -71 199v473h-173v-473z" />
<glyph unicode="x" horiz-adv-x="1094" d="M31 0h242l254 320l254 -320h241l-375 473l375 473h-241l-254 -321l-254 321h-242l375 -473z" />
<glyph unicode="y" d="M31 473q0 -201 136 -337t338 -136q158 0 284 94v-94q0 -122 -81 -203t-203 -81q-183 0 -258 165l-182 -58q55 -137 173.5 -217t266.5 -80q201 0 336.5 136.5t135.5 337.5v946h-188v-473q0 -122 -81 -203t-203 -81t-203.5 81t-81.5 203v473h-189v-473z" />
<glyph unicode="z" horiz-adv-x="1097" d="M31 0h994v189h-603l600 757h-991v-190h600z" />
<glyph unicode="{" horiz-adv-x="722" d="M31 614l2 -1v-3l192 -131v-574q0 -122 81 -203t202 -81h142v189h-142q-39 0 -66.5 28t-27.5 67v677l-186 124l186 124v684q0 39 27.5 66.5t66.5 27.5h142v189h-142q-122 0 -202.5 -81t-80.5 -202v-585l-192 -131zM363 499z" />
<glyph unicode="|" horiz-adv-x="340" d="M79 -378h189v2171h-189v-2171z" />
<glyph unicode="}" horiz-adv-x="722" d="M31 -190h143q39 0 66.5 28t27.5 67v677l185 124l-185 124v684q0 38 -28 66t-66 28h-143v189h143q122 0 202.5 -81t80.5 -202v-585l192 -131l1 -184l-2 -1l1 -3l-192 -131v-574q0 -122 -81 -203t-202 -81h-143v189zM320 499z" />
<glyph unicode="~" d="M31 1088q0 -132 75 -229q81 -103 209 -103q129 0 210 103q74 96 74 229q0 50 22 91q27 51 73 51t72 -51q22 -41 23 -91v-237h188v237q0 132 -74 228q-80 103 -209 103t-210 -103q-74 -96 -74 -228q0 -50 -22 -92q-27 -50 -73 -50t-72 50q-22 41 -23 92v236h-189v-236z " />
<glyph unicode="&#xa1;" horiz-adv-x="292" d="M31 -269v1088h189v-1088h-189zM31 961v189h189v-189h-189z" />
<glyph unicode="&#xa2;" horiz-adv-x="938" d="M31 473q0 -158 90 -281.5t242 -170.5v-163h188v144q183 19 307 157l-134 134q-68 -83 -173 -101v561q112 -19 180 -110l135 134q-124 148 -315 166v145h-188v-164q-151 -47 -241.5 -169.5t-90.5 -281.5zM220 473q1 164 143 245v-491q-142 82 -143 246z" />
<glyph unicode="&#xa3;" horiz-adv-x="955" d="M31 0h852v189h-663v378h474v189h-474v284h-189v-1040zM31 1040h189q0 79 82 137q74 53 155 53q83 0 156 -53q81 -57 81 -137h189q0 161 -135 273q-126 106 -291 106q-166 0 -291 -105q-134 -111 -135 -274z" />
<glyph unicode="&#xa4;" horiz-adv-x="1040" d="M31 616l135 -134l141 143q90 -53 192 -53q104 0 193 53l142 -143l134 134l-142 142q52 89 52 193t-52 192l142 142l-134 134l-142 -143q-89 53 -193 53t-192 -53l-141 143l-135 -134l143 -142q-53 -86 -53 -192q-1 -107 53 -193zM311 951q0 81 53.5 134.5t134.5 53.5 q82 0 136 -53.5t54 -134.5t-53.5 -135t-136.5 -54q-78 0 -133 55t-55 134z" />
<glyph unicode="&#xa5;" horiz-adv-x="1391" d="M31 1420h236l407 -549l408 549l237 2l-430 -580h188v-189h-309v-188h310v-190h-310v-275h-189v275h-306v190h306v188h-306v189h188z" />
<glyph unicode="&#xa6;" horiz-adv-x="1620" />
<glyph unicode="&#xa7;" horiz-adv-x="955" d="M31 284q0 -137 152 -218q124 -66 274 -66q149 0 274 66q151 81 152 218q0 108 -109 189q108 81 109 189q0 137 -152 218q-125 66 -274 66q-190 0 -189 94q0 95 189 95q70 0 138 -18q98 -26 99 -77h189q0 137 -152 218q-124 66 -274 66q-149 0 -274 -66 q-152 -81 -152 -218q0 -108 109 -189q-108 -81 -109 -189q0 -137 152 -218q124 -66 274 -66q189 0 189 -94q0 -95 -189 -95q-72 0 -137 18q-99 27 -100 77h-189zM268 662q0 94 189 94t189 -94q0 -95 -188 -95h-1q-190 0 -189 95z" />
<glyph unicode="&#xa8;" horiz-adv-x="629" d="M55 1244v184h168v-184h-168zM388 1244v184h169v-184h-169z" />
<glyph unicode="&#xa9;" horiz-adv-x="1712" d="M31 699q0 -344 230 -574.5t574 -230.5t574.5 230.5t230.5 574.5q0 195 -86.5 365t-244.5 285q-2 2 -25 17q-50 35 -94 55l-9 4q-13 9 -33 15l-115 39l-36 8q-72 16 -162 16q-261 0 -472 -154q-158 -115 -245 -285t-87 -365zM220 699q0 260 177.5 437.5t437.5 177.5h1 q281 0 465 -214q149 -174 150 -401q0 -264 -176 -439.5t-440 -175.5q-263 0 -439 176t-176 439zM338 692q0 -223 147.5 -375t370.5 -152q173 0 310 105l-98 101q-96 -66 -212 -66q-163 0 -271.5 112t-108.5 275t108.5 275t271.5 112q116 0 212 -66l98 101q-138 106 -310 105 q-223 0 -370.5 -151.5t-147.5 -375.5z" />
<glyph unicode="&#xaa;" horiz-adv-x="1620" />
<glyph unicode="&#xab;" horiz-adv-x="1620" />
<glyph unicode="&#xac;" horiz-adv-x="1620" />
<glyph unicode="&#xad;" horiz-adv-x="861" d="M31 615h758v189h-758v-189z" />
<glyph unicode="&#xae;" horiz-adv-x="1712" d="M31 699q0 -344 230 -574.5t574 -230.5t574.5 230.5t230.5 574.5q0 195 -87 365t-244 285q-2 2 -25 17q-50 35 -94 55l-9 4q-8 4 -33 15l-115 39l-36 8q-72 16 -162 16q-208 0 -411 -113l-8 -4q-13 -8 -53 -37q-158 -115 -245 -285t-87 -365zM220 699q0 158 76.5 295.5 t208.5 221.5v-1035q-133 85 -209 222.5t-76 295.5zM508 178h135v422h209l220 -422h91q-149 -94 -328 -94q-177 0 -327 94zM531 1233q0 -1 2 0q141 81 302 81h1q281 0 465 -214q149 -174 150 -401q0 -301 -238 -486l-214 406q101 32 165.5 113t64.5 185q0 140 -104 230 q-99 86 -241 86h-353zM643 740v352h241q82 0 142 -46q65 -50 65 -129q0 -80 -65 -130q-61 -47 -142 -47h-241z" />
<glyph unicode="&#xaf;" horiz-adv-x="1620" />
<glyph unicode="&#xb0;" horiz-adv-x="1620" />
<glyph unicode="&#xb1;" horiz-adv-x="861" d="M31 76h751v190h-751v-190zM31 615h284v-285h190v285h284v189h-284v284h-190v-284h-284v-189z" />
<glyph unicode="&#xb2;" horiz-adv-x="1620" />
<glyph unicode="&#xb3;" horiz-adv-x="1620" />
<glyph unicode="&#xb4;" horiz-adv-x="548" d="M85 1166l167 286h224l-167 -286h-224z" />
<glyph unicode="&#xb5;" d="M31 -474h189v568q126 -94 285 -94q201 0 336.5 136t135.5 337v473h-188v-473q0 -122 -81 -203t-203 -81t-203.5 81t-81.5 203v473h-189v-1420z" />
<glyph unicode="&#xb6;" horiz-adv-x="1002" d="M31 1040q0 -161 109 -269.5t270 -108.5v-662h189v1230h142v-1230h189v1419h-520q-161 0 -270 -109t-109 -270z" />
<glyph unicode="&#xb7;" horiz-adv-x="421" d="M166 554v184h183v-184h-183z" />
<glyph unicode="&#xb8;" horiz-adv-x="1620" />
<glyph unicode="&#xb9;" horiz-adv-x="1620" />
<glyph unicode="&#xba;" horiz-adv-x="577" d="M31 1182q0 -102 67.5 -169t169.5 -67q103 0 170 66.5t67 169.5q0 102 -67.5 169.5t-169.5 67.5t-169.5 -67.5t-67.5 -169.5zM174 1182q0 39 27 67t67 28q39 0 67 -27.5t28 -67.5q0 -39 -28 -66.5t-67 -27.5t-66.5 27.5t-27.5 66.5z" />
<glyph unicode="&#xbb;" horiz-adv-x="1620" />
<glyph unicode="&#xbc;" horiz-adv-x="1620" />
<glyph unicode="&#xbd;" horiz-adv-x="1620" />
<glyph unicode="&#xbe;" horiz-adv-x="1620" />
<glyph unicode="&#xbf;" d="M31 158q0 -191 144 -312q135 -115 329 -115t330 114q143 122 143 313h-188q0 -108 -91 -177q-82 -61 -194 -61q-110 0 -193 63q-91 68 -91 175t91 175q82 61 193 61h142v426h-189v-239q-178 -15 -299 -129q-127 -119 -127 -294zM457 961h189v189h-189v-189z" />
<glyph unicode="&#xc0;" horiz-adv-x="1587" d="M31 1l209 -2l229 520h616l228 -520l202 2l-618 1418h-240zM552 709l225 512l225 -512h-450zM585 1776l167 -286h224l-167 286h-224z" />
<glyph unicode="&#xc1;" horiz-adv-x="1587" d="M31 1l209 -2l229 520h616l228 -520l202 2l-618 1418h-240zM550 1490l167 286h224l-167 -286h-224zM552 709l225 512l225 -512h-450z" />
<glyph unicode="&#xc2;" horiz-adv-x="1587" d="M31 1l209 -2l229 520h616l228 -520l202 2l-618 1418h-240zM398 1519h190l171 189l170 -188h186l-262 285h-7h-176h1h-9zM552 709l225 512l225 -512h-450z" />
<glyph unicode="&#xc3;" horiz-adv-x="1587" d="M31 1l209 -2l229 520h616l228 -520l202 2l-618 1418h-240zM474 1632q0 -68 43.5 -115.5t111.5 -47.5q67 0 112 49q43 47 42.5 115.5t51.5 68.5t52 -70v-116h103v116q0 68 -43.5 115.5t-111.5 47.5q-67 0 -110.5 -47.5t-43.5 -115.5q0 -70 -52 -70t-52 70v116h-103v-116z M552 709l225 512l225 -512h-450z" />
<glyph unicode="&#xc4;" horiz-adv-x="1587" d="M31 1l209 -2l229 520h616l228 -520l202 2l-618 1418h-240zM519 1500v184h168v-184h-168zM552 709l225 512l225 -512h-450zM852 1500v184h169v-184h-169z" />
<glyph unicode="&#xc5;" horiz-adv-x="1587" d="M31 1l209 -2l229 520h616l228 -520l202 2l-618 1418h-240zM524 1544q0 -102 67 -169.5t169 -67.5t169.5 67.5t67.5 169.5t-67.5 169t-169.5 67q-101 0 -168.5 -67.5t-67.5 -168.5zM552 709l225 512l225 -512h-450zM666 1544q0 40 27 67.5t67 27.5t67.5 -27.5t27.5 -67.5 t-27.5 -67.5t-67.5 -27.5q-39 0 -66.5 27.5t-27.5 67.5z" />
<glyph unicode="&#xc6;" horiz-adv-x="1620" />
<glyph unicode="&#xc7;" horiz-adv-x="1620" />
<glyph unicode="&#xc8;" horiz-adv-x="908" d="M31 -1h805v189h-615v426h425v189h-425v426h615v190h-805v-1420zM224 1776l167 -286h224l-167 286h-224z" />
<glyph unicode="&#xc9;" horiz-adv-x="908" d="M31 -1h805v189h-615v426h425v189h-425v426h615v190h-805v-1420zM255 1490l167 286h224l-167 -286h-224z" />
<glyph unicode="&#xca;" horiz-adv-x="908" d="M31 -1h805v189h-615v426h425v189h-425v426h615v190h-805v-1420zM88 1519h190l171 189l170 -188h186l-262 285h-7h-176h1h-9z" />
<glyph unicode="&#xcb;" horiz-adv-x="908" d="M31 -1h805v189h-615v426h425v189h-425v426h615v190h-805v-1420zM175 1500v184h168v-184h-168zM508 1500v184h169v-184h-169z" />
<glyph unicode="&#xcc;" horiz-adv-x="490" d="M27 1776l167 -286h224l-167 286h-224zM31 0h379v189h-95v1041h95v189h-379v-189h95v-1041h-95v-189z" />
<glyph unicode="&#xcd;" horiz-adv-x="503" d="M31 0h379v189h-95v1041h95v189h-379v-189h95v-1041h-95v-189zM39 1490l167 286h224l-167 -286h-224z" />
<glyph unicode="&#xce;" horiz-adv-x="671" d="M-118 1519h190l171 189l170 -188h186l-262 285h-7h-176h1h-9zM31 0h379v189h-95v1041h95v189h-379v-189h95v-1041h-95v-189z" />
<glyph unicode="&#xcf;" horiz-adv-x="551" d="M-23 1500v184h168v-184h-168zM31 0h379v189h-95v1041h95v189h-379v-189h95v-1041h-95v-189zM310 1500v184h169v-184h-169z" />
<glyph unicode="&#xd0;" horiz-adv-x="1344" d="M8 607v189l124 -1l4 624h426q303 0 506.5 -203.5t203.5 -506.5t-203 -506.5t-507 -203.5h-426v606l-12 2h-116zM326 188h236q223 0 371.5 149t148.5 372t-148.5 371.5t-371.5 148.5h-236l1 -433h286v-189l-286 1z" />
<glyph unicode="&#xd1;" horiz-adv-x="1238" d="M31 0h189v1103l747 -1103h199v1419h-189v-1095l-742 1095h-204v-1419zM349 1632q0 -68 43.5 -115.5t111.5 -47.5q67 0 112 49q43 47 42.5 115.5t51.5 68.5t52 -70v-116h103v116q0 68 -43.5 115.5t-111.5 47.5q-67 0 -110.5 -47.5t-43.5 -115.5q0 -70 -52 -70t-52 70v116 h-103v-116z" />
<glyph unicode="&#xd2;" horiz-adv-x="1523" d="M31 709q0 -303 203.5 -506t506.5 -203t506.5 203t203.5 506t-203.5 506.5t-506.5 203.5t-506.5 -203.5t-203.5 -506.5zM220 709q0 223 149 372t372 149t371.5 -149t148.5 -372q0 -222 -149 -371t-371 -149q-223 0 -372 148.5t-149 371.5zM542 1776l167 -286h224l-167 286 h-224z" />
<glyph unicode="&#xd3;" horiz-adv-x="1523" d="M31 709q0 -303 203.5 -506t506.5 -203t506.5 203t203.5 506t-203.5 506.5t-506.5 203.5t-506.5 -203.5t-203.5 -506.5zM220 709q0 223 149 372t372 149t371.5 -149t148.5 -372q0 -222 -149 -371t-371 -149q-223 0 -372 148.5t-149 371.5zM519 1490l167 286h224l-167 -286 h-224z" />
<glyph unicode="&#xd4;" horiz-adv-x="1523" d="M31 709q0 -303 203.5 -506t506.5 -203t506.5 203t203.5 506t-203.5 506.5t-506.5 203.5t-506.5 -203.5t-203.5 -506.5zM220 709q0 223 149 372t372 149t371.5 -149t148.5 -372q0 -222 -149 -371t-371 -149q-223 0 -372 148.5t-149 371.5zM357 1519h190l171 189l170 -188 h186l-262 285h-7h-176h1h-9z" />
<glyph unicode="&#xd5;" horiz-adv-x="1523" d="M31 709q0 -303 203.5 -506t506.5 -203t506.5 203t203.5 506t-203.5 506.5t-506.5 203.5t-506.5 -203.5t-203.5 -506.5zM220 709q0 223 149 372t372 149t371.5 -149t148.5 -372q0 -222 -149 -371t-371 -149q-223 0 -372 148.5t-149 371.5zM444 1632q0 -68 43.5 -115.5 t111.5 -47.5q67 0 112 49q43 47 42.5 115.5t51.5 68.5t52 -70v-116h103v116q0 68 -43.5 115.5t-111.5 47.5q-67 0 -110.5 -47.5t-43.5 -115.5q0 -70 -52 -70t-52 70v116h-103v-116z" />
<glyph unicode="&#xd6;" horiz-adv-x="1523" d="M31 709q0 -303 203.5 -506t506.5 -203t506.5 203t203.5 506t-203.5 506.5t-506.5 203.5t-506.5 -203.5t-203.5 -506.5zM220 709q0 223 149 372t372 149t371.5 -149t148.5 -372q0 -222 -149 -371t-371 -149q-223 0 -372 148.5t-149 371.5zM453 1500v184h168v-184h-168z M786 1500v184h169v-184h-169z" />
<glyph unicode="&#xd7;" horiz-adv-x="772" d="M31 508l135 -133l200 201l201 -201l133 133l-201 201l201 201l-133 134l-201 -201l-200 201l-135 -134l201 -201z" />
<glyph unicode="&#xd8;" horiz-adv-x="1620" />
<glyph unicode="&#xd9;" horiz-adv-x="1238" d="M31 709q0 -303 129 -491q149 -218 439 -218q291 0 439 218q128 187 128 491v710h-189v-710q0 -520 -378 -520q-379 0 -379 520v710h-189v-710zM406 1776l167 -286h224l-167 286h-224z" />
<glyph unicode="&#xda;" horiz-adv-x="1238" d="M31 709q0 -303 129 -491q149 -218 439 -218q291 0 439 218q128 187 128 491v710h-189v-710q0 -520 -378 -520q-379 0 -379 520v710h-189v-710zM436 1490l167 286h224l-167 -286h-224z" />
<glyph unicode="&#xdb;" horiz-adv-x="1238" d="M31 709q0 -303 129 -491q149 -218 439 -218q291 0 439 218q128 187 128 491v710h-189v-710q0 -520 -378 -520q-379 0 -379 520v710h-189v-710zM230 1519h190l171 189l170 -188h186l-262 285h-7h-176h1h-9z" />
<glyph unicode="&#xdc;" horiz-adv-x="1238" d="M31 709q0 -303 129 -491q149 -218 439 -218q291 0 439 218q128 187 128 491v710h-189v-710q0 -520 -378 -520q-379 0 -379 520v710h-189v-710zM353 1500v184h168v-184h-168zM686 1500v184h169v-184h-169z" />
<glyph unicode="&#xdd;" horiz-adv-x="1391" d="M31 1420l548 -737v-683h189v679l551 743l-237 -2l-408 -549l-407 549h-236zM490 1490l167 286h224l-167 -286h-224z" />
<glyph unicode="&#xde;" horiz-adv-x="1097" d="M31 0h189v236h331q201 0 337.5 136t136.5 337t-136.5 337t-337.5 136h-331v237h-189v-1419zM220 425v569h331v-1q123 0 204 -80.5t81 -203.5q0 -122 -81.5 -203t-203.5 -81h-331z" />
<glyph unicode="&#xdf;" horiz-adv-x="1620" />
<glyph unicode="&#xe0;" d="M31 473q0 -201 136 -337t338 -136q158 0 284 94v-94h188v520h-2q-18 185 -151 305.5t-319 120.5q-201 0 -337.5 -136t-136.5 -337zM220 473q0 122 81.5 202.5t203.5 80.5t203 -81t81 -202q0 -122 -81 -203t-203 -81t-203.5 81t-81.5 203zM309 1452l167 -286h224l-167 286 h-224z" />
<glyph unicode="&#xe1;" d="M31 473q0 -201 136 -337t338 -136q158 0 284 94v-94h188v520h-2q-18 185 -151 305.5t-319 120.5q-201 0 -337.5 -136t-136.5 -337zM220 473q0 122 81.5 202.5t203.5 80.5t203 -81t81 -202q0 -122 -81 -203t-203 -81t-203.5 81t-81.5 203zM301 1166l167 286h224l-167 -286 h-224z" />
<glyph unicode="&#xe2;" d="M31 473q0 -201 136 -337t338 -136q158 0 284 94v-94h188v520h-2q-18 185 -151 305.5t-319 120.5q-201 0 -337.5 -136t-136.5 -337zM176 1195h190l171 189l170 -188h186l-262 285h-7h-176h1h-9zM220 473q0 122 81.5 202.5t203.5 80.5t203 -81t81 -202q0 -122 -81 -203 t-203 -81t-203.5 81t-81.5 203z" />
<glyph unicode="&#xe3;" d="M31 473q0 -201 136 -337t338 -136q158 0 284 94v-94h188v520h-2q-18 185 -151 305.5t-319 120.5q-201 0 -337.5 -136t-136.5 -337zM220 473q0 122 81.5 202.5t203.5 80.5t203 -81t81 -202q0 -122 -81 -203t-203 -81t-203.5 81t-81.5 203zM259 1330q0 -68 43.5 -115.5 t111.5 -47.5q67 0 112 49q43 47 42.5 115.5t51.5 68.5t52 -70v-116h103v116q0 68 -43.5 115.5t-111.5 47.5q-67 0 -110.5 -47.5t-43.5 -115.5q0 -70 -52 -70t-52 70v116h-103v-116z" />
<glyph unicode="&#xe4;" d="M31 473q0 -201 136 -337t338 -136q158 0 284 94v-94h188v520h-2q-18 185 -151 305.5t-319 120.5q-201 0 -337.5 -136t-136.5 -337zM220 473q0 122 81.5 202.5t203.5 80.5t203 -81t81 -202q0 -122 -81 -203t-203 -81t-203.5 81t-81.5 203zM254 1244v184h168v-184h-168z M587 1244v184h169v-184h-169z" />
<glyph unicode="&#xe5;" d="M31 473q0 -201 136 -337t338 -136q158 0 284 94v-94h188v520h-2q-18 185 -151 305.5t-319 120.5q-201 0 -337.5 -136t-136.5 -337zM220 473q0 122 81.5 202.5t203.5 80.5t203 -81t81 -202q0 -122 -81 -203t-203 -81t-203.5 81t-81.5 203zM266 1309q0 -102 67 -169.5 t169 -67.5t169.5 67.5t67.5 169.5t-67.5 169t-169.5 67q-101 0 -168.5 -67.5t-67.5 -168.5zM408 1309q0 40 27 67.5t67 27.5t67.5 -27.5t27.5 -67.5t-27.5 -67.5t-67.5 -27.5q-39 0 -66.5 27.5t-27.5 67.5z" />
<glyph unicode="&#xe6;" horiz-adv-x="1620" />
<glyph unicode="&#xe7;" horiz-adv-x="1620" />
<glyph unicode="&#xe8;" horiz-adv-x="1040" d="M31 473q0 -201 135.5 -336.5t335.5 -136.5v-3h428v192h-425q-90 0 -164 52t-104 137h612l119 189q-34 169 -162 274t-301 105q-201 0 -337.5 -136t-136.5 -337zM237 567q30 85 104 137t164 52q91 0 163.5 -51.5t103.5 -137.5h-535zM283 1452l167 -286h224l-167 286h-224z " />
<glyph unicode="&#xe9;" horiz-adv-x="1040" d="M31 473q0 -201 135.5 -336.5t335.5 -136.5v-3h428v192h-425q-90 0 -164 52t-104 137h612l119 189q-34 169 -162 274t-301 105q-201 0 -337.5 -136t-136.5 -337zM237 567q30 85 104 137t164 52q91 0 163.5 -51.5t103.5 -137.5h-535zM303 1166l167 286h224l-167 -286h-224z " />
<glyph unicode="&#xea;" horiz-adv-x="1040" d="M31 473q0 -201 135.5 -336.5t335.5 -136.5v-3h428v192h-425q-90 0 -164 52t-104 137h612l119 189q-34 169 -162 274t-301 105q-201 0 -337.5 -136t-136.5 -337zM177 1195h190l171 189l170 -188h186l-262 285h-7h-176h1h-9zM237 567q30 85 104 137t164 52 q91 0 163.5 -51.5t103.5 -137.5h-535z" />
<glyph unicode="&#xeb;" horiz-adv-x="1040" d="M31 473q0 -201 135.5 -336.5t335.5 -136.5v-3h428v192h-425q-90 0 -164 52t-104 137h612l119 189q-34 169 -162 274t-301 105q-201 0 -337.5 -136t-136.5 -337zM237 567q30 85 104 137t164 52q91 0 163.5 -51.5t103.5 -137.5h-535zM273 1244v184h168v-184h-168zM606 1244 v184h169v-184h-169z" />
<glyph unicode="&#xec;" horiz-adv-x="410" d="M-53 1452l167 -286h224l-167 286h-224zM31 7h189v946h-189v-946z" />
<glyph unicode="&#xed;" horiz-adv-x="411" d="M-52 1166l167 286h224l-167 -286h-224zM31 7h189v946h-189v-946z" />
<glyph unicode="&#xee;" horiz-adv-x="471" d="M-167 1194h149l135 189l135 -188h147l-207 286h-6h1h-70h-70h1h-7zM31 7h189v946h-189v-946z" />
<glyph unicode="&#xef;" horiz-adv-x="397" d="M-73 1248v180h134v-180h-134zM31 7h189v946h-189v-946zM192 1248v180h133v-180h-133z" />
<glyph unicode="&#xf0;" horiz-adv-x="1620" />
<glyph unicode="&#xf1;" d="M31 7h189v473q0 123 81 203.5t204 80.5q122 0 203 -81t81 -203v-473h188v473q0 201 -135.5 337t-336.5 136t-337.5 -136t-136.5 -337v-473zM262 1330q0 -68 43.5 -115.5t111.5 -47.5q67 0 112 49q43 47 42.5 115.5t51.5 68.5t52 -70v-116h103v116q0 68 -43.5 115.5 t-111.5 47.5q-67 0 -110.5 -47.5t-43.5 -115.5q0 -70 -52 -70t-52 70v116h-103v-116z" />
<glyph unicode="&#xf2;" d="M31 480q0 -201 136.5 -337t337.5 -136t336.5 136t135.5 337t-135.5 337t-336.5 136t-337.5 -136t-136.5 -337zM220 480q0 123 81 203.5t204 80.5q122 0 203 -81t81 -203t-81 -203t-203 -81t-203.5 81t-81.5 203zM284 1452l167 -286h224l-167 286h-224z" />
<glyph unicode="&#xf3;" d="M31 480q0 -201 136.5 -337t337.5 -136t336.5 136t135.5 337t-135.5 337t-336.5 136t-337.5 -136t-136.5 -337zM220 480q0 123 81 203.5t204 80.5q122 0 203 -81t81 -203t-81 -203t-203 -81t-203.5 81t-81.5 203zM303 1166l167 286h224l-167 -286h-224z" />
<glyph unicode="&#xf4;" d="M31 480q0 -201 136.5 -337t337.5 -136t336.5 136t135.5 337t-135.5 337t-336.5 136t-337.5 -136t-136.5 -337zM151 1195h190l171 189l170 -188h186l-262 285h-7h-176h1h-9zM220 480q0 123 81 203.5t204 80.5q122 0 203 -81t81 -203t-81 -203t-203 -81t-203.5 81 t-81.5 203z" />
<glyph unicode="&#xf5;" d="M31 480q0 -201 136.5 -337t337.5 -136t336.5 136t135.5 337t-135.5 337t-336.5 136t-337.5 -136t-136.5 -337zM220 480q0 123 81 203.5t204 80.5q122 0 203 -81t81 -203t-81 -203t-203 -81t-203.5 81t-81.5 203zM225 1330q0 -68 43.5 -115.5t111.5 -47.5q67 0 112 49 q43 47 42.5 115.5t51.5 68.5t52 -70v-116h103v116q0 68 -43.5 115.5t-111.5 47.5q-67 0 -110.5 -47.5t-43.5 -115.5q0 -70 -52 -70t-52 70v116h-103v-116z" />
<glyph unicode="&#xf6;" d="M31 480q0 -201 136.5 -337t337.5 -136t336.5 136t135.5 337t-135.5 337t-336.5 136t-337.5 -136t-136.5 -337zM220 480q0 123 81 203.5t204 80.5q122 0 203 -81t81 -203t-81 -203t-203 -81t-203.5 81t-81.5 203zM256 1244v184h168v-184h-168zM589 1244v184h169v-184h-169 z" />
<glyph unicode="&#xf7;" horiz-adv-x="861" d="M31 615h758v189h-758v-189zM309 340h189v189h-189v-189zM309 877h189v189h-189v-189z" />
<glyph unicode="&#xf8;" horiz-adv-x="1620" />
<glyph unicode="&#xf9;" d="M31 473q0 -201 136 -337t338 -136q201 0 336.5 136t135.5 337v473h-188v-473q0 -122 -81 -203t-203 -81t-203.5 81t-81.5 203v473h-189v-473zM320 1452l167 -286h224l-167 286h-224z" />
<glyph unicode="&#xfa;" d="M31 473q0 -201 136 -337t338 -136q201 0 336.5 136t135.5 337v473h-188v-473q0 -122 -81 -203t-203 -81t-203.5 81t-81.5 203v473h-189v-473zM292 1166l167 286h224l-167 -286h-224z" />
<glyph unicode="&#xfb;" d="M31 473q0 -201 136 -337t338 -136q201 0 336.5 136t135.5 337v473h-188v-473q0 -122 -81 -203t-203 -81t-203.5 81t-81.5 203v473h-189v-473zM157 1195h190l171 189l170 -188h186l-262 285h-7h-176h1h-9z" />
<glyph unicode="&#xfc;" d="M31 473q0 -201 136 -337t338 -136q201 0 336.5 136t135.5 337v473h-188v-473q0 -122 -81 -203t-203 -81t-203.5 81t-81.5 203v473h-189v-473zM279 1244v184h168v-184h-168zM612 1244v184h169v-184h-169z" />
<glyph unicode="&#xfd;" d="M31 473q0 -201 136 -337t338 -136q158 0 284 94v-94q0 -122 -81 -203t-203 -81q-183 0 -258 165l-182 -58q55 -137 173.5 -217t266.5 -80q201 0 336.5 136.5t135.5 337.5v946h-188v-473q0 -122 -81 -203t-203 -81t-203.5 81t-81.5 203v473h-189v-473zM307 1166l167 286 h224l-167 -286h-224z" />
<glyph unicode="&#xfe;" d="M31 -220h189v331q126 -95 285 -95q201 0 336.5 136.5t135.5 337.5t-135.5 336.5t-336.5 135.5q-158 0 -285 -95v332h-189v-1419zM220 490q0 122 81.5 202.5t203.5 80.5t203 -81t81 -202q0 -122 -81 -203t-203 -81q-123 0 -204 80.5t-81 203.5z" />
<glyph unicode="&#xff;" d="M31 473q0 -201 136 -337t338 -136q158 0 284 94v-94q0 -122 -81 -203t-203 -81q-183 0 -258 165l-182 -58q55 -137 173.5 -217t266.5 -80q201 0 336.5 136.5t135.5 337.5v946h-188v-473q0 -122 -81 -203t-203 -81t-203.5 81t-81.5 203v473h-189v-473zM245 1244v184h168 v-184h-168zM578 1244v184h169v-184h-169z" />
<glyph unicode="&#x152;" horiz-adv-x="1620" />
<glyph unicode="&#x153;" horiz-adv-x="1620" />
<glyph unicode="&#x178;" horiz-adv-x="1391" d="M31 1420l548 -737v-683h189v679l551 743l-237 -2l-408 -549l-407 549h-236zM418 1500v184h168v-184h-168zM751 1500v184h169v-184h-169z" />
<glyph unicode="&#x2c6;" horiz-adv-x="901" d="M112 1195h190l171 189l170 -188h186l-262 285h-7h-176h1h-9z" />
<glyph unicode="&#x2dc;" horiz-adv-x="684" d="M96 1330q0 -68 43.5 -115.5t111.5 -47.5q67 0 112 49q43 47 42.5 115.5t51.5 68.5t52 -70v-116h103v116q0 68 -43.5 115.5t-111.5 47.5q-67 0 -110.5 -47.5t-43.5 -115.5q0 -70 -52 -70t-52 70v116h-103v-116z" />
<glyph unicode="&#x2000;" horiz-adv-x="902" />
<glyph unicode="&#x2001;" horiz-adv-x="1805" />
<glyph unicode="&#x2002;" horiz-adv-x="902" />
<glyph unicode="&#x2003;" horiz-adv-x="1805" />
<glyph unicode="&#x2004;" horiz-adv-x="601" />
<glyph unicode="&#x2005;" horiz-adv-x="451" />
<glyph unicode="&#x2006;" horiz-adv-x="300" />
<glyph unicode="&#x2007;" horiz-adv-x="300" />
<glyph unicode="&#x2008;" horiz-adv-x="225" />
<glyph unicode="&#x2009;" horiz-adv-x="361" />
<glyph unicode="&#x200a;" horiz-adv-x="100" />
<glyph unicode="&#x2010;" horiz-adv-x="861" d="M31 615h758v189h-758v-189z" />
<glyph unicode="&#x2011;" horiz-adv-x="861" d="M31 615h758v189h-758v-189z" />
<glyph unicode="&#x2012;" horiz-adv-x="861" d="M31 615h758v189h-758v-189z" />
<glyph unicode="&#x2013;" horiz-adv-x="1620" />
<glyph unicode="&#x2014;" horiz-adv-x="1620" />
<glyph unicode="&#x2018;" horiz-adv-x="292" d="M31 899h189v189h-94v94l94 95v142l-189 -189v-331z" />
<glyph unicode="&#x2019;" horiz-adv-x="292" d="M31 899l189 189v331h-189v-189h95v-95l-95 -95v-141z" />
<glyph unicode="&#x201a;" horiz-adv-x="292" d="M31 0h95v-95l-95 -95v-141l189 189v331h-189v-189z" />
<glyph unicode="&#x201c;" horiz-adv-x="622" d="M31 899h189v189h-94v94l94 95v142l-189 -189v-331zM362 899h188v189h-94v94l94 95v142l-188 -189v-331z" />
<glyph unicode="&#x201d;" horiz-adv-x="622" d="M31 899l189 189v331h-189v-189h95v-95l-95 -95v-141zM362 899l188 189v331h-188v-189h94v-95l-94 -95v-141z" />
<glyph unicode="&#x201e;" horiz-adv-x="561" d="M31 0h95v-95l-95 -95v-141l189 189v331h-189v-189zM300 0h95v-95l-95 -95v-141l189 189v331h-189v-189z" />
<glyph unicode="&#x2022;" horiz-adv-x="1620" />
<glyph unicode="&#x2026;" horiz-adv-x="1196" d="M31 0h189v189h-189v-189zM488 0h189v189h-189v-189zM935 0h189v189h-189v-189z" />
<glyph unicode="&#x202f;" horiz-adv-x="361" />
<glyph unicode="&#x2039;" horiz-adv-x="1620" />
<glyph unicode="&#x203a;" horiz-adv-x="1620" />
<glyph unicode="&#x205f;" horiz-adv-x="451" />
<glyph unicode="&#x2122;" horiz-adv-x="1620" />
<glyph unicode="&#xe000;" horiz-adv-x="944" d="M0 0v944h944v-944h-944z" />
</font>
</defs>
</svg>
